<svg xmlns="http://www.w3.org/2000/svg" xmlns:xlink="http://www.w3.org/1999/xlink" preserveAspectRatio="xMidYMid" width="1200" height="1327" viewBox="0 0 1200 1327">
  <defs>
    <style>
      .cls-1 {
        fill: #08e62d;
        stroke: aqua;
        stroke-linejoin: round;
        stroke-width: 2px;
        fill-opacity: 0;
        fill-rule: evenodd;
      }
    </style>
  </defs>
  <g>
    <path d="M717.000,1059.000 L587.000,1008.000 L669.000,918.000 L641.000,801.000 L809.000,588.000 L960.000,666.000 L844.000,787.000 L815.000,986.000 L717.000,1059.000 Z" class="cls-1"/>
    <path d="M842.000,786.000 L813.000,988.000 L1069.000,962.000 L1119.000,847.000 L1069.000,723.000 L958.000,665.000 L842.000,786.000 Z" class="cls-1"/>
    <path d="M978.000,1178.000 L693.000,1164.000 L716.000,1056.000 L812.000,986.000 L1071.000,959.000 L978.000,1178.000 Z" class="cls-1"/>
    <path d="M273.000,897.000 L293.000,929.000 L303.000,1023.000 L402.000,995.000 L589.000,1009.000 L671.000,919.000 L643.000,800.000 L435.000,814.000 L308.000,853.000 L273.000,897.000 Z" class="cls-1"/>
    <path d="M642.000,802.000 L434.000,816.000 L388.000,722.000 L426.000,583.000 L606.000,478.000 L807.000,554.000 L810.000,590.000 L642.000,802.000 Z" class="cls-1"/>
    <path d="M130.000,528.000 L129.000,674.000 L274.000,898.000 L309.000,855.000 L436.000,816.000 L390.000,722.000 L402.000,677.000 L308.000,648.000 L130.000,528.000 Z" class="cls-1"/>
    <path d="M132.000,395.000 L335.000,476.000 L428.000,582.000 L402.000,679.000 L306.000,649.000 L130.000,530.000 L132.000,395.000 Z" class="cls-1"/>
    <path d="M493.000,436.000 L393.000,341.000 L334.000,478.000 L427.000,584.000 L607.000,479.000 L493.000,436.000 Z" class="cls-1"/>
    <path d="M318.000,1155.000 L303.000,1021.000 L402.000,993.000 L589.000,1007.000 L718.000,1057.000 L695.000,1164.000 L382.000,1150.000 L318.000,1155.000 Z" class="cls-1"/>
    <path d="M132.000,397.000 L133.000,271.000 L288.000,239.000 L394.000,342.000 L336.000,479.000 L132.000,397.000 Z" class="cls-1"/>
  </g>
</svg>
