<svg xmlns="http://www.w3.org/2000/svg" xmlns:xlink="http://www.w3.org/1999/xlink" preserveAspectRatio="xMidYMid" width="1200" height="946" viewBox="0 0 1200 946">
  <defs>
    <style>
      .cls-1 {
        fill: #e44bac;
      }

      .cls-1, .cls-2, .cls-3 {
        stroke: aqua;
        stroke-linejoin: round;
        stroke-width: 2px;
        fill-opacity: 0;
        fill-rule: evenodd;
      }

      .cls-2 {
        fill: #f65b4d;
      }

      .cls-3 {
        fill: #0f3478;
      }
    </style>
  </defs>
  <g>
    <path d="M1000.000,352.000 L870.000,304.000 L804.000,342.000 L791.000,421.000 L805.000,493.000 L881.000,507.000 L909.000,570.000 L1022.000,548.000 L1000.000,352.000 Z" class="cls-1"/>
    <path d="M688.000,558.000 L665.000,532.000 L470.000,496.000 L529.000,400.000 L734.000,391.000 L792.478,421.863 L807.000,493.000 L688.000,558.000 Z" class="cls-1"/>
    <path d="M1166.000,324.000 L1163.000,577.000 L1091.000,577.000 L1019.000,548.000 L998.000,353.000 L1076.000,316.000 L1166.000,324.000 Z" class="cls-1"/>
    <path d="M908.000,567.000 L1021.000,546.000 L1091.000,575.000 L1163.000,575.000 L1162.000,736.000 L1005.000,769.000 L894.000,678.000 L908.000,567.000 Z" class="cls-2"/>
    <path d="M176.000,497.000 L404.000,569.000 L402.000,525.000 L473.000,495.000 L532.000,400.000 L529.000,292.000 L471.000,287.000 L451.000,245.000 L285.000,314.000 L306.000,388.000 L176.000,497.000 Z" class="cls-2"/>
    <path d="M677.000,225.000 L527.000,292.000 L530.000,402.000 L734.000,393.000 L792.000,424.000 L806.000,343.000 L871.000,306.000 L868.000,187.000 L677.000,225.000 Z" class="cls-3"/>
    <path d="M653.000,694.000 L688.000,555.000 L806.000,491.000 L882.000,505.000 L910.000,567.000 L896.000,679.000 L839.000,631.000 L653.000,694.000 Z" class="cls-1"/>
    <path d="M689.668,557.003 L666.203,530.625 L471.000,494.000 L400.000,524.000 L402.000,568.000 L521.000,722.000 L565.000,725.000 L655.000,694.000 L689.668,557.003 Z" class="cls-2"/>
    <path d="M452.000,247.000 L419.000,185.000 L171.000,189.000 L31.000,414.000 L35.000,455.000 L177.000,498.000 L308.000,389.000 L288.000,315.000 L452.000,247.000 Z" class="cls-2"/>
    <path d="M866.000,187.000 L869.000,305.000 L1000.000,354.000 L1077.000,318.000 L1166.000,326.000 L1168.000,185.000 L866.000,187.000 Z" class="cls-2"/>
  </g>
</svg>
