<svg xmlns="http://www.w3.org/2000/svg" xmlns:xlink="http://www.w3.org/1999/xlink" preserveAspectRatio="xMidYMid" width="1200" height="1235" viewBox="0 0 1200 1235">
  <defs>
    <style>
      .cls-1 {
        fill: #edda0a;
        stroke: aqua;
        stroke-linejoin: round;
        stroke-width: 2px;
        fill-opacity: 0;
        fill-rule: evenodd;
      }
    </style>
  </defs>
  <g>
    <path d="M810.000,540.000 L820.000,584.000 L786.000,655.000 L688.000,691.000 L578.000,676.000 L601.000,580.000 L687.000,482.000 L810.000,540.000 Z" class="cls-1"/>
    <path d="M415.000,537.000 L604.000,580.000 L580.000,676.000 L486.000,759.000 L382.000,762.000 L393.000,657.000 L356.000,618.000 L415.000,537.000 Z" class="cls-1"/>
    <path d="M484.000,758.000 L579.000,674.000 L690.000,689.000 L663.000,815.000 L541.000,884.000 L377.000,806.000 L382.000,760.000 L484.000,758.000 Z" class="cls-1"/>
    <path d="M514.000,1016.000 L432.000,986.000 L315.000,873.000 L378.000,804.000 L541.000,881.000 L560.000,959.000 L514.000,1016.000 Z" class="cls-1"/>
    <path d="M429.000,448.000 L393.000,454.000 L416.000,539.000 L602.000,582.000 L690.000,483.000 L504.000,394.000 L472.000,371.000 L429.000,448.000 Z" class="cls-1"/>
    <path d="M539.000,882.000 L591.000,853.000 L772.000,988.000 L765.000,1109.000 L512.000,1015.000 L557.000,959.000 L539.000,882.000 Z" class="cls-1"/>
    <path d="M771.000,989.000 L589.000,854.000 L661.000,814.000 L680.000,724.000 L759.000,833.000 L880.000,928.000 L857.000,974.000 L771.000,989.000 Z" class="cls-1"/>
    <path d="M680.000,727.000 L686.000,689.000 L785.000,653.000 L819.000,579.000 L897.000,896.000 L879.000,930.000 L758.000,835.000 L680.000,727.000 Z" class="cls-1"/>
    <path d="M418.000,537.000 L394.000,454.000 L319.000,466.000 L260.000,417.000 L221.000,347.000 L220.000,591.000 L358.000,619.000 L418.000,537.000 Z" class="cls-1"/>
    <path d="M316.000,875.000 L380.000,804.000 L394.000,655.000 L358.000,617.000 L220.000,590.000 L219.000,783.000 L316.000,875.000 Z" class="cls-1"/>
    <path d="M430.000,450.000 L318.000,468.000 L258.000,419.000 L221.000,351.000 L222.000,190.000 L474.000,372.000 L430.000,450.000 Z" class="cls-1"/>
  </g>
</svg>
