<svg xmlns="http://www.w3.org/2000/svg" xmlns:xlink="http://www.w3.org/1999/xlink" preserveAspectRatio="xMidYMid" width="1200" height="1526" viewBox="0 0 1200 1526">
  <defs>
    <style>
      .cls-1 {
        fill: #3793f1;
        stroke: aqua;
        stroke-linejoin: round;
        stroke-width: 2px;
        fill-opacity: 0;
        fill-rule: evenodd;
      }
    </style>
  </defs>
  <g>
    <path d="M899.245,629.273 L1002.541,659.477 L1004.490,514.301 L927.505,451.944 L834.929,519.173 L899.245,629.273 Z" class="cls-1"/>
    <path d="M1000.592,831.935 L824.209,854.345 L821.286,887.472 L861.240,1109.621 L894.372,1108.647 L1122.403,1076.494 L1000.592,885.523 L1000.592,831.935 Z" class="cls-1"/>
    <path d="M845.648,384.714 L591.306,474.353 L545.505,470.456 L603.974,613.684 L698.500,544.506 L836.878,520.147 L928.480,452.918 L845.648,384.714 Z" class="cls-1"/>
    <path d="M825.184,854.345 L856.367,711.117 L645.037,662.494 L591.306,808.551 L631.260,841.678 L623.464,889.421 L823.235,889.421 L825.184,854.345 Z" class="cls-1"/>
    <path d="M863.189,1109.621 L776.459,1112.544 L653.674,1076.494 L558.173,1119.364 L456.827,1075.519 L480.214,905.985 L618.592,913.779 L623.464,887.472 L823.235,887.472 L863.189,1109.621 Z" class="cls-1"/>
    <path d="M1002.541,657.529 L1000.592,832.909 L823.235,856.293 L854.418,711.117 L899.245,627.324 L1002.541,657.529 Z" class="cls-1"/>
    <path d="M410.051,626.350 L457.801,573.736 L340.862,558.146 L283.367,515.275 L244.388,647.785 L262.903,790.038 L328.194,750.091 L410.051,776.398 L410.051,626.350 Z" class="cls-1"/>
    <path d="M547.454,473.379 L455.852,575.684 L340.862,560.095 L283.367,518.198 L299.934,380.817 L437.337,329.177 L547.454,473.379 Z" class="cls-1"/>
    <path d="M436.362,329.177 L437.337,331.126 L301.883,382.766 L285.316,519.173 L246.337,649.734 L264.852,789.064 L183.969,838.755 L118.679,944.958 L58.260,941.061 L30.000,785.167 L111.857,487.020 L89.444,222.000 L436.362,329.177 Z" class="cls-1"/>
    <path d="M547.454,471.430 L604.949,611.735 L603.000,626.350 L646.852,662.400 L593.255,809.525 L525.041,752.039 L408.102,775.424 L408.102,626.350 L547.454,471.430 Z" class="cls-1"/>
    <path d="M631.260,1276.233 L556.224,1118.390 L652.699,1074.545 L777.434,1110.595 L895.347,1106.698 L933.352,1231.413 L936.276,1349.308 L760.867,1361.000 L631.260,1276.233 Z" class="cls-1"/>
    <path d="M893.398,1106.698 L1121.429,1074.545 L1155.536,1128.133 L1176.000,1333.719 L935.301,1349.308 L931.403,1230.439 L893.398,1106.698 Z" class="cls-1"/>
    <path d="M603.974,611.735 L601.051,627.324 L645.411,664.366 L855.393,713.066 L900.219,628.299 L836.878,518.198 L697.525,543.531 L603.974,611.735 Z" class="cls-1"/>
  </g>
</svg>
